<mxfile host="app.diagrams.net" agent="Mozilla/5.0 (X11; Ubuntu; Linux x86_64; rv:128.0) Gecko/20100101 Firefox/128.0" version="24.7.6">
  <diagram name="Page-1" id="44ovGo1HpY7G83NPtl0q">
    <mxGraphModel dx="1730" dy="436" grid="1" gridSize="10" guides="1" tooltips="1" connect="1" arrows="1" fold="1" page="1" pageScale="1" pageWidth="850" pageHeight="1100" math="0" shadow="0">
      <root>
        <mxCell id="0" />
        <mxCell id="1" parent="0" />
        <mxCell id="RmV5fELP2TWHnNHFD0xX-9" value="" style="edgeStyle=orthogonalEdgeStyle;rounded=0;orthogonalLoop=1;jettySize=auto;html=1;" edge="1" parent="1" source="RmV5fELP2TWHnNHFD0xX-1" target="RmV5fELP2TWHnNHFD0xX-2">
          <mxGeometry relative="1" as="geometry" />
        </mxCell>
        <mxCell id="RmV5fELP2TWHnNHFD0xX-1" value="" style="html=1;verticalLabelPosition=bottom;align=center;labelBackgroundColor=#ffffff;verticalAlign=top;strokeWidth=2;strokeColor=#0080F0;shadow=0;dashed=0;shape=mxgraph.ios7.icons.user;" vertex="1" parent="1">
          <mxGeometry y="206.5" width="30" height="30" as="geometry" />
        </mxCell>
        <mxCell id="RmV5fELP2TWHnNHFD0xX-10" value="" style="edgeStyle=orthogonalEdgeStyle;rounded=0;orthogonalLoop=1;jettySize=auto;html=1;" edge="1" parent="1" source="RmV5fELP2TWHnNHFD0xX-2" target="RmV5fELP2TWHnNHFD0xX-3">
          <mxGeometry relative="1" as="geometry" />
        </mxCell>
        <mxCell id="RmV5fELP2TWHnNHFD0xX-2" value="" style="verticalLabelPosition=bottom;aspect=fixed;html=1;shape=mxgraph.salesforce.service;" vertex="1" parent="1">
          <mxGeometry x="60" y="196.9" width="60" height="49.199999999999996" as="geometry" />
        </mxCell>
        <mxCell id="RmV5fELP2TWHnNHFD0xX-11" value="" style="edgeStyle=orthogonalEdgeStyle;rounded=0;orthogonalLoop=1;jettySize=auto;html=1;" edge="1" parent="1" source="RmV5fELP2TWHnNHFD0xX-3" target="RmV5fELP2TWHnNHFD0xX-5">
          <mxGeometry relative="1" as="geometry" />
        </mxCell>
        <mxCell id="RmV5fELP2TWHnNHFD0xX-3" value="" style="fillColor=#28A8E0;verticalLabelPosition=bottom;sketch=0;html=1;strokeColor=#ffffff;verticalAlign=top;align=center;points=[[0.145,0.145,0],[0.5,0,0],[0.855,0.145,0],[1,0.5,0],[0.855,0.855,0],[0.5,1,0],[0.145,0.855,0],[0,0.5,0]];pointerEvents=1;shape=mxgraph.cisco_safe.compositeIcon;bgIcon=ellipse;resIcon=mxgraph.cisco_safe.capability.load_balancer;" vertex="1" parent="1">
          <mxGeometry x="160" y="200" width="43" height="43" as="geometry" />
        </mxCell>
        <mxCell id="RmV5fELP2TWHnNHFD0xX-4" value="" style="image;aspect=fixed;html=1;points=[];align=center;fontSize=12;image=img/lib/azure2/networking/Front_Doors.svg;" vertex="1" parent="1">
          <mxGeometry x="147.5" y="300" width="68" height="60" as="geometry" />
        </mxCell>
        <mxCell id="RmV5fELP2TWHnNHFD0xX-12" value="" style="edgeStyle=orthogonalEdgeStyle;rounded=0;orthogonalLoop=1;jettySize=auto;html=1;" edge="1" parent="1" source="RmV5fELP2TWHnNHFD0xX-5" target="RmV5fELP2TWHnNHFD0xX-6">
          <mxGeometry relative="1" as="geometry" />
        </mxCell>
        <mxCell id="RmV5fELP2TWHnNHFD0xX-5" value="" style="shadow=0;dashed=0;html=1;labelPosition=center;verticalLabelPosition=bottom;verticalAlign=top;align=center;outlineConnect=0;shape=mxgraph.veeam.3d.proxy;" vertex="1" parent="1">
          <mxGeometry x="260" y="199" width="46" height="46" as="geometry" />
        </mxCell>
        <mxCell id="RmV5fELP2TWHnNHFD0xX-13" value="" style="edgeStyle=orthogonalEdgeStyle;rounded=0;orthogonalLoop=1;jettySize=auto;html=1;" edge="1" parent="1" source="RmV5fELP2TWHnNHFD0xX-6" target="RmV5fELP2TWHnNHFD0xX-7">
          <mxGeometry relative="1" as="geometry" />
        </mxCell>
        <mxCell id="RmV5fELP2TWHnNHFD0xX-6" value="" style="aspect=fixed;sketch=0;html=1;dashed=0;whitespace=wrap;verticalLabelPosition=bottom;verticalAlign=top;fillColor=#2875E2;strokeColor=#ffffff;points=[[0.005,0.63,0],[0.1,0.2,0],[0.9,0.2,0],[0.5,0,0],[0.995,0.63,0],[0.72,0.99,0],[0.5,1,0],[0.28,0.99,0]];shape=mxgraph.kubernetes.icon2;kubernetesLabel=1;prIcon=node" vertex="1" parent="1">
          <mxGeometry x="360" y="198" width="50" height="48" as="geometry" />
        </mxCell>
        <mxCell id="RmV5fELP2TWHnNHFD0xX-14" value="" style="edgeStyle=orthogonalEdgeStyle;rounded=0;orthogonalLoop=1;jettySize=auto;html=1;" edge="1" parent="1" source="RmV5fELP2TWHnNHFD0xX-7" target="RmV5fELP2TWHnNHFD0xX-8">
          <mxGeometry relative="1" as="geometry" />
        </mxCell>
        <mxCell id="RmV5fELP2TWHnNHFD0xX-7" value="" style="shape=datastore;whiteSpace=wrap;html=1;" vertex="1" parent="1">
          <mxGeometry x="470" y="192" width="60" height="60" as="geometry" />
        </mxCell>
        <mxCell id="RmV5fELP2TWHnNHFD0xX-8" value="Cloud&#xa;Monitoring" style="sketch=0;html=1;verticalAlign=top;labelPosition=center;verticalLabelPosition=bottom;align=center;spacingTop=-6;fontSize=11;fontStyle=1;fontColor=#999999;shape=image;aspect=fixed;imageAspect=0;image=data:image/svg+xml,PHN2ZyB4bWxucz0iaHR0cDovL3d3dy53My5vcmcvMjAwMC9zdmciIHhtbG5zOnY9Imh0dHBzOi8vdmVjdGEuaW8vbmFubyIgd2lkdGg9IjIwIiBoZWlnaHQ9IjEzLjUyOTk5OTczMjk3MTE5MSIgdmlld0JveD0iLTIuOTMyMDk3ODk3ODEyMDE0ZS05IC01LjI1ODAxNTA0MTgzNzk1NmUtMTUgMjAgMTMuNTI5OTk5NzMyOTcxMTkxIj4mI3hhOwk8c3R5bGUgdHlwZT0idGV4dC9jc3MiPiYjeGE7CS5zdDB7ZmlsbDojNDI4NWY0O30mI3hhOwkuc3Qxe2ZpbGw6IzY2OWRmNjt9JiN4YTsJPC9zdHlsZT4mI3hhOwk8cGF0aCBjbGFzcz0ic3QxIiBkPSJNOC44MyAxMC41OGgyLjMzdjIuNjRIOC44M3oiLz4mI3hhOwk8cGF0aCBjbGFzcz0ic3QwIiBkPSJNMTYuNDggOC42MWEuNTYuNTYgMCAwIDEtLjQtLjE3TDEyIDQuMjEgOS4yNiA3LjFhLjU3LjU3IDAgMCAxLS43Ni4wNUw2LjQyIDUuNDdsLTIuMiAyLjkyYS41Ni41NiAwIDAgMS0uNDUuMjJIMHYxLjcxYS43NS43NSAwIDAgMCAuNzQuNzVoMTguNTJhLjc1Ljc1IDAgMCAwIC43NC0uNzVWOC42MXoiLz4mI3hhOwk8cGF0aCBjbGFzcz0ic3QxIiBkPSJNMy41IDcuNWwyLjM4LTMuMTZhLjU1LjU1IDAgMCAxIC4zNy0uMjIuNjMuNjMgMCAwIDEgLjQyLjEybDIuMTIgMS43MiAyLjgtMi45NGEuNTQuNTQgMCAwIDEgLjQtLjE3aDBhLjU0LjU0IDAgMCAxIC40LjE3bDQuMzMgNC40OEgyMFYuNzRhLjc0Ljc0IDAgMCAwLS43NC0uNzRILjc0QS43NC43NCAwIDAgMCAwIC43NHY2LjgxeiIvPiYjeGE7CTxyZWN0IGNsYXNzPSJzdDAiIHg9IjYuNjciIHk9IjEyLjkyIiB3aWR0aD0iNi42NyIgaGVpZ2h0PSIuNjEiIHJ4PSIuMyIvPiYjeGE7PC9zdmc+;" vertex="1" parent="1">
          <mxGeometry x="600" y="207" width="42" height="29" as="geometry" />
        </mxCell>
        <mxCell id="RmV5fELP2TWHnNHFD0xX-15" style="edgeStyle=orthogonalEdgeStyle;rounded=0;orthogonalLoop=1;jettySize=auto;html=1;entryX=0.949;entryY=0.533;entryDx=0;entryDy=0;entryPerimeter=0;" edge="1" parent="1" source="RmV5fELP2TWHnNHFD0xX-5" target="RmV5fELP2TWHnNHFD0xX-4">
          <mxGeometry relative="1" as="geometry">
            <Array as="points">
              <mxPoint x="290" y="332" />
            </Array>
          </mxGeometry>
        </mxCell>
        <mxCell id="RmV5fELP2TWHnNHFD0xX-16" style="edgeStyle=orthogonalEdgeStyle;rounded=0;orthogonalLoop=1;jettySize=auto;html=1;entryX=0.467;entryY=0.983;entryDx=0;entryDy=0;entryPerimeter=0;" edge="1" parent="1" source="RmV5fELP2TWHnNHFD0xX-4" target="RmV5fELP2TWHnNHFD0xX-1">
          <mxGeometry relative="1" as="geometry" />
        </mxCell>
        <mxCell id="RmV5fELP2TWHnNHFD0xX-17" value="" style="rounded=1;whiteSpace=wrap;html=1;fillColor=#68636B;strokeColor=#9673a6;fillStyle=dots;gradientColor=none;gradientDirection=north;opacity=25;" vertex="1" parent="1">
          <mxGeometry x="140" y="160" width="530" height="224" as="geometry" />
        </mxCell>
        <mxCell id="RmV5fELP2TWHnNHFD0xX-18" value="&lt;font style=&quot;font-size: 18px;&quot;&gt;&lt;b&gt;Digital Ocean&lt;br&gt;&lt;/b&gt;&lt;/font&gt;" style="text;html=1;align=center;verticalAlign=middle;whiteSpace=wrap;rounded=0;" vertex="1" parent="1">
          <mxGeometry x="500" y="354" width="120" height="30" as="geometry" />
        </mxCell>
      </root>
    </mxGraphModel>
  </diagram>
</mxfile>
